<svg width="20" height="19" viewBox="0 0 20 19" fill="none" xmlns="http://www.w3.org/2000/svg">
<path d="M18.5 1.30483C18.0315 0.9131 17.4826 0.62932 16.8921 0.473631C16.3016 0.317943 15.684 0.294168 15.0833 0.403993L11.8983 0.98233C11.163 1.11736 10.4944 1.49568 10 2.05649C9.5043 1.49471 8.8338 1.11631 8.09667 0.98233L4.91667 0.403993C4.31596 0.294072 3.69844 0.317535 3.10781 0.472723C2.51718 0.62791 1.96789 0.91103 1.4988 1.30204C1.02972 1.69305 0.652322 2.18238 0.393318 2.73542C0.134315 3.28845 4.0677e-05 3.89165 0 4.50233V13.4965C4.78799e-05 14.4722 0.342481 15.4169 0.967611 16.166C1.59274 16.9151 2.46092 17.421 3.42083 17.5957L8.65917 18.5482C9.5458 18.7093 10.4542 18.7093 11.3408 18.5482L16.5833 17.5957C17.5425 17.4201 18.4097 16.9138 19.034 16.1648C19.6583 15.4158 20.0001 14.4716 20 13.4965V4.50233C20.0004 3.89186 19.8662 3.28883 19.6069 2.73615C19.3476 2.18348 18.9697 1.69477 18.5 1.30483ZM9.16667 16.9423C9.09667 16.9323 9.02667 16.9207 8.95667 16.9082L3.71917 15.9565C3.14314 15.8517 2.62216 15.548 2.24707 15.0985C1.87198 14.6489 1.66658 14.082 1.66667 13.4965V4.50233C1.66667 3.83929 1.93006 3.2034 2.3989 2.73456C2.86774 2.26572 3.50363 2.00233 4.16667 2.00233C4.31758 2.00269 4.46816 2.01635 4.61667 2.04316L7.8 2.62649C8.18301 2.69658 8.52939 2.89855 8.77904 3.19736C9.02868 3.49617 9.16582 3.87296 9.16667 4.26233V16.9423ZM18.3333 13.4965C18.3334 14.082 18.128 14.6489 17.7529 15.0985C17.3778 15.548 16.8569 15.8517 16.2808 15.9565L11.0433 16.9082C10.9733 16.9207 10.9033 16.9323 10.8333 16.9423V4.26233C10.8333 3.872 10.9702 3.49404 11.2203 3.19433C11.4703 2.89463 11.8176 2.69219 12.2017 2.62233L15.3858 2.03899C15.7464 1.97339 16.117 1.98787 16.4714 2.08142C16.8258 2.17497 17.1553 2.34529 17.4365 2.58033C17.7178 2.81537 17.9439 3.10937 18.0988 3.44151C18.2538 3.77365 18.3339 4.13581 18.3333 4.50233V13.4965Z" fill="#868686"/>
</svg>
