<svg width="16" height="21" viewBox="0 0 16 21" fill="none" xmlns="http://www.w3.org/2000/svg">
<path d="M12.9945 2.40694C11.9774 1.49823 10.7317 0.884094 9.3915 0.630634C8.0513 0.377174 6.66734 0.493983 5.38858 0.968491C4.10983 1.443 2.98468 2.25724 2.13423 3.32359C1.28377 4.38993 0.74021 5.66801 0.56203 7.02028C0.40202 8.20598 0.52999 9.41279 0.93513 10.5386C1.34027 11.6643 2.01065 12.6759 2.88953 13.4878C3.43303 13.9644 3.8716 14.5487 4.17744 15.2037C4.48327 15.8587 4.64971 16.5701 4.6662 17.2928V17.4269C4.66708 18.2422 4.99134 19.0238 5.56782 19.6003C6.1443 20.1768 6.92593 20.5011 7.7412 20.5019H8.2579C9.0731 20.5011 9.8548 20.1768 10.4312 19.6003C11.0077 19.0238 11.332 18.2422 11.3329 17.4269V16.9694C11.3453 16.3307 11.4957 15.7021 11.7735 15.1268C12.0514 14.5515 12.4503 14.043 12.9429 13.6361C13.7417 12.9365 14.3827 12.0751 14.8235 11.109C15.2643 10.1429 15.4948 9.09421 15.4997 8.03234C15.5045 6.97046 15.2837 5.91967 14.8519 4.94957C14.42 3.97948 13.7869 3.11223 12.9945 2.40527V2.40694ZM8.2579 18.8353H7.7412C7.36782 18.8348 7.00986 18.6863 6.74585 18.4223C6.48183 18.1583 6.33331 17.8003 6.33287 17.4269C6.33287 17.4269 6.32703 17.2103 6.3262 17.1686H9.6662V17.4269C9.6658 17.8003 9.5172 18.1583 9.2532 18.4223C8.9892 18.6863 8.6312 18.8348 8.2579 18.8353ZM11.8412 12.3844C10.8924 13.2074 10.2072 14.2917 9.8712 15.5019H8.8329V9.51528C9.3186 9.34354 9.7395 9.02592 10.0378 8.60586C10.3361 8.1858 10.4974 7.68383 10.4995 7.16861C10.4995 6.94759 10.4117 6.73563 10.2555 6.57935C10.0992 6.42307 9.8872 6.33528 9.6662 6.33528C9.4452 6.33528 9.2332 6.42307 9.0769 6.57935C8.9207 6.73563 8.8329 6.94759 8.8329 7.16861C8.8329 7.38962 8.7451 7.60158 8.5888 7.75786C8.4325 7.91414 8.2205 8.00194 7.99953 8.00194C7.77852 8.00194 7.56656 7.91414 7.41028 7.75786C7.254 7.60158 7.1662 7.38962 7.1662 7.16861C7.1662 6.94759 7.0784 6.73563 6.92212 6.57935C6.76584 6.42307 6.55388 6.33528 6.33287 6.33528C6.11185 6.33528 5.89989 6.42307 5.74361 6.57935C5.58733 6.73563 5.49953 6.94759 5.49953 7.16861C5.50167 7.68383 5.66294 8.1858 5.96127 8.60586C6.25961 9.02592 6.68044 9.34354 7.1662 9.51528V15.5019H6.06453C5.68869 14.2596 4.9838 13.1421 4.02453 12.2678C3.21033 11.5091 2.63014 10.5334 2.35242 9.45568C2.07471 8.378 2.11107 7.24337 2.45721 6.18569C2.80335 5.128 3.44482 4.1914 4.30592 3.48641C5.16703 2.78142 6.21183 2.33747 7.31703 2.20694C7.54614 2.18137 7.7765 2.16857 8.007 2.16861C9.4383 2.16435 10.8201 2.69246 11.8837 3.65027C12.5001 4.19994 12.9926 4.87435 13.3287 5.6288C13.6647 6.38324 13.8365 7.2005 13.8327 8.02638C13.8289 8.85226 13.6496 9.6679 13.3067 10.4192C12.9638 11.1706 12.4651 11.8404 11.8437 12.3844H11.8412Z" fill="#868686"/>
</svg>
